{
  "accessors": [
    {
      "bufferView": 2,
      "componentType": 5126,
      "count": 878,
      "max": [
        328.8975830078125,
        762.1658935546875,
        715.7456665039063
      ],
      "min": [
        -654.098388671875,
        -200.70480346679688,
        47.73562240600586
      ],
      "type": "VEC3"
    },
    {
      "bufferView": 2,
      "byteOffset": 10536,
      "componentType": 5126,
      "count": 878,
      "max": [
        1.0,
        1.0,
        1.0
      ],
      "min": [
        -1.0,
        -1.0,
        -1.0
      ],
      "type": "VEC3"
    },
    {
      "bufferView": 1,
      "componentType": 5126,
      "count": 878,
      "max": [
        0.9900000095367432,
        0.9900000095367432
      ],
      "min": [
        0.009999999776482582,
        0.025800000876188278
      ],
      "type": "VEC2"
    },
    {
      "bufferView": 0,
      "componentType": 5125,
      "count": 1542,
      "type": "SCALAR"
    }
  ],
  "asset": {
    "extras": {
      "author": "DougByte (https://sketchfab.com/DougByte)",
      "license": "CC-BY-4.0 (http://creativecommons.org/licenses/by/4.0/)",
      "source": "https://sketchfab.com/3d-models/winter-cottage-hand-painted-acb5384b93134b779d9854fcbe62c837",
      "title": "Winter Cottage - Hand Painted"
    },
    "generator": "Sketchfab-12.65.0",
    "version": "2.0"
  },
  "bufferViews": [
    {
      "buffer": 0,
      "byteLength": 6168,
      "name": "floatBufferViews",
      "target": 34963
    },
    {
      "buffer": 0,
      "byteLength": 7024,
      "byteOffset": 6168,
      "byteStride": 8,
      "name": "floatBufferViews",
      "target": 34962
    },
    {
      "buffer": 0,
      "byteLength": 21072,
      "byteOffset": 13192,
      "byteStride": 12,
      "name": "floatBufferViews",
      "target": 34962
    }
  ],
  "buffers": [
    {
      "byteLength": 34264,
      "uri": "scene.bin"
    }
  ],
  "images": [
    {
      "uri": "textures/Cottage_baseColor.png"
    }
  ],
  "materials": [
    {
      "alphaMode": "BLEND",
      "doubleSided": true,
      "name": "Cottage",
      "pbrMetallicRoughness": {
        "baseColorTexture": {
          "index": 0
        },
        "metallicFactor": 0.0,
        "roughnessFactor": 0.9074423928
      }
    }
  ],
  "meshes": [
    {
      "name": "Object_0",
      "primitives": [
        {
          "attributes": {
            "NORMAL": 1,
            "POSITION": 0,
            "TEXCOORD_0": 2
          },
          "indices": 3,
          "material": 0,
          "mode": 4
        }
      ]
    }
  ],
  "nodes": [
    {
      "children": [
        1
      ],
      "matrix": [
        -0.010649221889746707,
        -8.005317385545267e-05,
        5.153292820923849e-19,
        0.0,
        5.273924631831842e-19,
        -1.6027920785494284e-18,
        0.010649522766470909,
        0.0,
        -8.005317385545267e-05,
        0.010649221889746707,
        1.6067112729284552e-18,
        0.0,
        -322.3258361816406,
        -1.211489558219785,
        -561.4598999023438,
        1.0
      ],
      "name": "Sketchfab_model"
    },
    {
      "children": [
        2
      ],
      "name": "1614aa147b574b7d8f7a653d46216dd2.obj.cleaner.materialmerger.gles"
    },
    {
      "mesh": 0,
      "name": "Object_2"
    }
  ],
  "samplers": [
    {
      "magFilter": 9729,
      "minFilter": 9987,
      "wrapS": 10497,
      "wrapT": 10497
    }
  ],
  "scene": 0,
  "scenes": [
    {
      "name": "Sketchfab_Scene",
      "nodes": [
        0
      ]
    }
  ],
  "textures": [
    {
      "sampler": 0,
      "source": 0
    }
  ]
}
